<svg width="49" height="65" viewBox="0 0 49 65" fill="none" xmlns="http://www.w3.org/2000/svg">
<path d="M13.3152 30.107V0.794613C13.3152 0.353162 13.7974 0 14.5552 0H23.9931C24.4753 0 24.9576 0.17658 25.0953 0.529743L30.262 9.1822C30.4687 9.49122 30.8132 9.84438 31.1576 9.84438C31.5709 9.84438 31.8465 9.49122 32.0532 9.1822L37.0821 0.529743C37.3577 0.17658 37.771 0 38.3221 0H47.76C48.4489 0 49 0.353162 49 0.794613V30.107C49 30.5926 48.4489 30.9016 47.76 30.9016H39.5621C38.8732 30.9016 38.3221 30.5926 38.3221 30.107V16.731C38.2532 16.3779 37.9777 16.3337 37.771 16.6869L32.1909 24.6772C31.3643 25.6042 30.3998 25.0745 30.1243 24.6772L24.5442 16.6869C24.3375 16.3337 23.9931 16.3779 23.9931 16.731V30.107C23.9931 30.5926 23.3731 30.9016 22.7531 30.9016H14.5552C13.7974 30.9016 13.3152 30.5926 13.3152 30.107Z" fill="white"/>
<path d="M0 34.8793V63.6863C0 64.1201 0.481064 64.4672 1.1683 64.4672H9.41514C10.1711 64.4672 10.6522 64.1201 10.6522 63.6863V34.8793C10.6522 34.4454 10.1711 34.0984 9.41514 34.0984H1.1683C0.481064 34.0984 0 34.4454 0 34.8793Z" fill="white"/>
<path d="M26.9448 52.5511L36.6921 64.4703C36.9399 64.7793 37.6007 65 38.1789 65H47.4305C48.2566 65 49 64.6468 49 64.2054V34.893C49 34.4515 48.2566 34.0984 47.4305 34.0984H37.6007C36.6921 34.0984 36.0312 34.4515 36.0312 34.893V46.9446C35.866 47.3419 35.2052 47.3861 35.04 47.0329L25.9536 34.6281C25.7058 34.2749 25.1275 34.0984 24.4667 34.0984H15.0499C14.1413 34.0984 13.3152 34.4515 13.3152 34.893V64.2054C13.3152 64.6468 14.1413 65 15.0499 65H24.5493C25.3754 65 26.1188 64.6468 26.1188 64.2054V52.6393C26.2014 52.2862 26.697 52.1979 26.9448 52.5511Z" fill="white"/>
<path d="M0 0.794613V30.107C0 30.5485 0.481064 30.9016 1.1683 30.9016H9.41514C10.1711 30.9016 10.6522 30.5485 10.6522 30.107V0.794613C10.6522 0.353162 10.1711 0 9.41514 0H1.1683C0.481064 0 0 0.353162 0 0.794613Z" fill="white"/>
</svg>
